nColumns=19
nRows=45
DataType=double
version=3
OpenSimVersion=4.1
endheader
time	ground_force_calcn_r_vx	ground_force_calcn_r_vy	ground_force_calcn_r_vz	ground_force_calcn_r_px	ground_force_calcn_r_py	ground_force_calcn_r_pz	ground_force_calcn_r_mx	ground_force_calcn_r_my	ground_force_calcn_r_mz	ground_force_calcn_l_vx	ground_force_calcn_l_vy	ground_force_calcn_l_vz	ground_force_calcn_l_px	ground_force_calcn_l_py	ground_force_calcn_l_pz	ground_force_calcn_l_mx	ground_force_calcn_l_my	ground_force_calcn_l_mz
3.25	9.77356	277.679	-68.1906	-0.252753	0	-0.441781	-0.0272551	-0.77435	0.19016	7.6093	306.786	65.1604	-0.253474	0	-0.911905	0.041347	1.667	0.354065
3.26	9.27324	279.584	-67.3482	-0.252577	0	-0.442384	-0.0349107	-1.05254	0.253544	6.43793	309.133	64.2959	-0.252413	0	-0.911932	0.0395092	1.89713	0.39458
3.27	8.96245	281.936	-66.2949	-0.252769	0	-0.443149	-0.0431887	-1.35861	0.319465	5.38999	311.707	63.1097	-0.251539	0	-0.911781	0.0370125	2.14046	0.433367
3.28	8.83932	284.685	-64.9953	-0.253252	0	-0.444064	-0.0522546	-1.68295	0.384226	4.50135	314.381	61.5779	-0.250825	0	-0.911468	0.0342261	2.3904	0.468208
3.29	8.8833	287.768	-63.4265	-0.253931	0	-0.445102	-0.062178	-2.01421	0.443949	3.79318	317.033	59.6928	-0.250238	0	-0.911016	0.0315852	2.63988	0.497053
3.3	9.05852	291.114	-61.5788	-0.254705	0	-0.446233	-0.0728238	-2.34034	0.495047	3.27133	319.586	57.4639	-0.249737	0	-0.910454	0.0295025	2.88219	0.518239
3.31	9.3227	294.649	-59.4517	-0.25548	0	-0.447424	-0.0838424	-2.64988	0.53467	2.92736	322.022	54.9175	-0.249281	0	-0.909809	0.0282862	3.1116	0.530651
3.32	9.63595	298.288	-57.053	-0.256174	0	-0.44864	-0.0947527	-2.93314	0.561016	2.7429	324.369	52.0959	-0.24883	0	-0.909116	0.0281091	3.32411	0.533876
3.33	9.96506	301.931	-54.398	-0.256721	0	-0.449851	-0.105054	-3.18304	0.573478	2.69525	326.672	49.0553	-0.248351	0	-0.908402	0.0290281	3.51828	0.528331
3.34	10.2823	305.471	-51.5099	-0.257073	0	-0.451028	-0.114299	-3.39565	0.57259	2.75649	328.968	45.8646	-0.24782	0	-0.907697	0.0309653	3.69551	0.515226
3.35	10.5589	308.809	-48.4234	-0.257197	0	-0.452149	-0.122078	-3.57031	0.55985	2.88718	331.29	42.6028	-0.247217	0	-0.907027	0.0336338	3.85932	0.496296
3.36	10.7628	311.878	-45.187	-0.25707	0	-0.453195	-0.128009	-3.70938	0.53744	3.03667	333.671	39.3529	-0.246524	0	-0.906417	0.0365345	4.01444	0.47346
3.37	10.86	314.658	-41.8607	-0.256682	0	-0.454152	-0.131763	-3.81771	0.507891	3.15102	336.16	36.1954	-0.245725	0	-0.905885	0.0390497	4.16593	0.44856
3.38	10.8188	317.171	-38.5111	-0.256029	0	-0.455006	-0.133094	-3.90187	0.473766	3.18115	338.815	33.2034	-0.244807	0	-0.905447	0.0405471	4.31854	0.423212
3.39	10.6137	319.467	-35.2023	-0.25512	0	-0.455752	-0.131866	-3.96908	0.437356	3.08862	341.702	30.437	-0.24377	0	-0.90511	0.0404596	4.47615	0.398711
3.4	10.2336	321.597	-31.987	-0.253971	0	-0.456389	-0.128121	-4.02626	0.400464	2.85053	344.887	27.9377	-0.242616	0	-0.904876	0.038361	4.64131	0.375971
3.41	9.68378	323.607	-28.9007	-0.252607	0	-0.45692	-0.122073	-4.07937	0.36432	2.46069	348.426	25.7261	-0.241355	0	-0.904735	0.0340042	4.8149	0.355508
3.42	8.98223	325.534	-25.9619	-0.25106	0	-0.457357	-0.114036	-4.1329	0.329606	1.92565	352.36	23.8025	-0.240005	0	-0.904679	0.0273035	4.99606	0.337492
3.43	8.15488	327.403	-23.174	-0.249363	0	-0.457709	-0.10436	-4.18987	0.296564	1.26001	356.697	22.1513	-0.23858	0	-0.90469	0.0183065	5.18239	0.321833
3.44	7.23326	329.229	-20.5308	-0.247549	0	-0.457993	-0.093413	-4.25179	0.265143	0.483964	361.402	20.7439	-0.237103	0	-0.904753	0.00719128	5.37012	0.308236
3.45	6.25418	331	-18.02	-0.245655	0	-0.458222	-0.0816003	-4.31866	0.235112	-0.37634	366.408	19.5395	-0.235588	0	-0.904849	-0.00570532	5.55476	0.296218
3.46	5.26047	332.684	-15.6251	-0.243712	0	-0.458411	-0.0694036	-4.38924	0.206149	-1.28913	371.637	18.4886	-0.234055	0	-0.904958	-0.0198825	5.73186	0.285155
3.47	4.29965	334.234	-13.3286	-0.241751	0	-0.458575	-0.0573959	-4.46168	0.177924	-2.22015	377.014	17.5393	-0.232519	0	-0.905063	-0.0347302	5.89768	0.27437
3.48	3.41751	335.614	-11.1164	-0.239799	0	-0.458724	-0.0461721	-4.53431	0.150188	-3.13461	382.475	16.6447	-0.230995	0	-0.905151	-0.0495797	6.04955	0.263267
3.49	2.64961	336.807	-8.98223	-0.237877	0	-0.458865	-0.0362345	-4.60596	0.122835	-3.99729	387.961	15.7697	-0.229497	0	-0.905211	-0.0637358	6.18595	0.251444
3.5	2.01555	337.811	-6.93036	-0.235999	0	-0.458997	-0.0279013	-4.67634	0.0959372	-4.77688	393.42	14.8958	-0.228037	0	-0.905242	-0.0765738	6.30655	0.238781
3.51	1.51605	338.64	-4.97633	-0.23417	0	-0.459116	-0.0212468	-4.74591	0.0697413	-5.45275	398.8	14.0228	-0.22662	0	-0.905247	-0.0876723	6.41213	0.225467
3.52	1.13427	339.327	-3.14649	-0.232392	0	-0.459214	-0.016098	-4.81586	0.0446562	-6.01643	404.047	13.1652	-0.225251	0	-0.905234	-0.0968511	6.50426	0.21193
3.53	0.840404	339.923	-1.47547	-0.230659	0	-0.459281	-0.0120845	-4.88788	0.0212164	-6.46569	409.092	12.3464	-0.223933	0	-0.905216	-0.104072	6.58474	0.198727
3.54	0.597569	340.486	-0.00189542	-0.22897	0	-0.459302	-0.00871158	-4.96374	2.76321e-05	-6.79867	413.844	11.5938	-0.222666	0	-0.905206	-0.109331	6.65513	0.186442
3.55	0.366779	341.067	1.2367	-0.227317	0	-0.459266	-0.00542498	-5.04467	-0.0182919	-7.01313	418.202	10.9343	-0.221452	0	-0.905216	-0.112635	6.71655	0.175612
3.56	0.110864	341.691	2.20785	-0.225698	0	-0.45916	-0.00166476	-5.13095	-0.0331538	-7.10898	422.07	10.3927	-0.22029	0	-0.905256	-0.114025	6.76984	0.166694
3.57	-0.201757	342.379	2.88596	-0.224109	0	-0.458977	0.00307721	-5.22198	-0.0440169	-7.09095	425.37	9.98932	-0.219177	0	-0.905334	-0.113616	6.81556	0.160055
3.58	-0.594967	343.148	3.25196	-0.222552	0	-0.458712	0.00921825	-5.31664	-0.0503849	-6.96919	428.051	9.74067	-0.21811	0	-0.905453	-0.111591	6.85399	0.155968
3.59	-1.08606	344.019	3.29215	-0.221027	0	-0.458366	0.0170901	-5.41343	-0.0518047	-6.75939	430.09	9.66049	-0.217086	0	-0.905614	-0.108208	6.88514	0.154651
3.6	-1.68716	345.009	2.99748	-0.21954	0	-0.457941	0.0269483	-5.51067	-0.0478774	-6.48356	431.501	9.76139	-0.216101	0	-0.90582	-0.103809	6.90878	0.15629
3.61	-2.40426	346.127	2.36415	-0.218094	0	-0.457444	0.0389437	-5.60648	-0.0382939	-6.16833	432.322	10.0544	-0.215151	0	-0.906066	-0.098799	6.92456	0.161043
3.62	-3.23555	347.366	1.39322	-0.216691	0	-0.456882	0.0530818	-5.69882	-0.0228569	-5.84048	432.614	10.5487	-0.214231	0	-0.906352	-0.0935849	6.93199	0.169027
3.63	-4.17089	348.705	0.0897199	-0.215339	0	-0.456265	0.0692012	-5.78553	-0.00148858	-5.5215	432.444	11.253	-0.213337	0	-0.906674	-0.0884892	6.93048	0.180345
3.64	-5.19154	350.102	-1.53745	-0.214042	0	-0.455603	0.0869601	-5.86432	0.0257527	-5.22421	431.875	12.1775	-0.212473	0	-0.907028	-0.0837008	6.91938	0.195105
3.65	-6.27034	351.497	-3.47555	-0.212803	0	-0.454908	0.105837	-5.93292	0.0586638	-4.95243	430.96	13.3343	-0.211638	0	-0.907415	-0.0792695	6.89802	0.213432
3.66	-7.37265	352.823	-5.70924	-0.211628	0	-0.454187	0.125153	-5.98927	0.0969161	-4.70319	429.736	14.7371	-0.210838	0	-0.907832	-0.0751411	6.86575	0.23545
3.67	-8.45969	354.009	-8.2225	-0.210524	0	-0.453446	0.144141	-6.03181	0.1401	-4.47038	428.227	16.4011	-0.210075	0	-0.90828	-0.0712154	6.82187	0.261277
3.68	-9.49406	354.996	-11.0009	-0.209497	0	-0.452692	0.162061	-6.0597	0.187782	-4.24812	426.436	18.3431	-0.20935	0	-0.908762	-0.0673987	6.76564	0.291024
3.69	-10.4437	355.734	-14.0332	-0.20855	0	-0.45192	0.178286	-6.07279	0.239562	-4.0325	424.362	20.5812	-0.208662	0	-0.909284	-0.0636315	6.69628	0.324764
